<svg width="158" height="90" viewBox="0 0 158 90" fill="none" xmlns="http://www.w3.org/2000/svg">
<g filter="url(#filter0_f_1_47)">
<ellipse cx="80.0257" cy="51.9604" rx="73.9744" ry="33.6247" fill="url(#paint0_radial_1_47)" fill-opacity="0.66"/>
</g>
<path d="M43.115 16.7389C44.9893 4.30644 55.8388 0.635254 60.5245 0.86048V68.0904C54.1022 68.0904 51.821 62.9102 51.4831 60.3201C50.5906 63.0228 46.9983 68.3607 39.7689 68.0904C30.7323 67.7526 28.054 64.0364 26.0458 61.6715C9.31124 73.8337 0.274199 55.5904 0.274199 53.2255C-2.73764 30.9281 20.0269 33.9687 21.3656 34.3065C17.6785 16.7389 36.4212 11.3335 43.115 16.7389Z" fill="white"/>
<path d="M43.115 16.7389C44.9893 4.30644 55.8388 0.635254 60.5245 0.86048V68.0904C54.1022 68.0904 51.821 62.9102 51.4831 60.3201C50.5906 63.0228 46.9983 68.3607 39.7689 68.0904C30.7323 67.7526 28.054 64.0364 26.0458 61.6715C9.31124 73.8337 0.274199 55.5904 0.274199 53.2255C-2.73764 30.9281 20.0269 33.9687 21.3656 34.3065C17.6785 16.7389 36.4212 11.3335 43.115 16.7389Z" fill="url(#paint1_linear_1_47)"/>
<path d="M48.3892 16.7389C49.722 4.30644 57.4372 0.635254 60.7693 0.86048V68.0904C56.2023 68.0904 54.5801 62.9102 54.3398 60.3201C53.7052 63.0228 51.1506 68.3607 46.0097 68.0904C39.5837 67.7526 37.6791 64.0364 36.2511 61.6715C24.3509 73.8337 17.9246 55.5904 17.9246 53.2255C15.7828 30.9281 31.9709 33.9687 32.9229 34.3065C30.301 16.7389 43.6291 11.3335 48.3892 16.7389Z" fill="#DBDBDB"/>
<path d="M48.145 16.7389C49.4779 4.30644 57.1931 0.635254 60.5251 0.86048V68.0904C55.9582 68.0904 54.3359 62.9102 54.0957 60.3201C53.461 63.0228 50.9065 68.3607 45.7656 68.0904C39.3395 67.7526 37.4349 64.0364 36.0069 61.6715C24.1068 73.8337 17.6805 55.5904 17.6805 53.2255C15.5387 30.9281 31.7268 33.9687 32.6788 34.3065C30.0568 16.7389 43.385 11.3335 48.145 16.7389Z" fill="url(#paint2_linear_1_47)"/>
<path d="M77.9339 16.7389C76.0596 4.30644 65.21 0.635254 60.5244 0.86048V68.0904C66.9466 68.0904 69.2279 62.9102 69.5658 60.3201C70.4583 63.0228 74.0506 68.3607 81.28 68.0904C90.3166 67.7526 92.9949 64.0364 95.0031 61.6715C111.738 73.8337 120.775 55.5904 120.775 53.2255C123.787 30.9281 101.022 33.9687 99.6833 34.3065C103.37 16.7389 84.6277 11.3335 77.9339 16.7389Z" fill="white"/>
<path d="M77.9339 16.7389C76.0596 4.30644 65.21 0.635254 60.5244 0.86048V68.0904C66.9466 68.0904 69.2279 62.9102 69.5658 60.3201C70.4583 63.0228 74.0506 68.3607 81.28 68.0904C90.3166 67.7526 92.9949 64.0364 95.0031 61.6715C111.738 73.8337 120.775 55.5904 120.775 53.2255C123.787 30.9281 101.022 33.9687 99.6833 34.3065C103.37 16.7389 84.6277 11.3335 77.9339 16.7389Z" fill="#A0A2A6"/>
<path d="M72.1312 16.7389C70.8817 4.30644 63.6487 0.635254 60.5249 0.86048V68.0904C64.8064 68.0904 66.3273 62.9102 66.5525 60.3201C67.1475 63.0228 69.5424 68.3607 74.362 68.0904C80.3864 67.7526 82.1719 64.0364 83.5107 61.6715C94.6671 73.8337 100.692 55.5904 100.692 53.2255C102.7 30.9281 87.5233 33.9687 86.6308 34.3065C89.0889 16.7389 76.5938 11.3335 72.1312 16.7389Z" fill="white"/>
<path d="M72.1312 16.7389C70.8817 4.30644 63.6487 0.635254 60.5249 0.86048V68.0904C64.8064 68.0904 66.3273 62.9102 66.5525 60.3201C67.1475 63.0228 69.5424 68.3607 74.362 68.0904C80.3864 67.7526 82.1719 64.0364 83.5107 61.6715C94.6671 73.8337 100.692 55.5904 100.692 53.2255C102.7 30.9281 87.5233 33.9687 86.6308 34.3065C89.0889 16.7389 76.5938 11.3335 72.1312 16.7389Z" fill="url(#paint3_linear_1_47)"/>
<defs>
<filter id="filter0_f_1_47" x="2.05127" y="14.3357" width="155.949" height="75.2495" filterUnits="userSpaceOnUse" color-interpolation-filters="sRGB">
<feFlood flood-opacity="0" result="BackgroundImageFix"/>
<feBlend mode="normal" in="SourceGraphic" in2="BackgroundImageFix" result="shape"/>
<feGaussianBlur stdDeviation="2" result="effect1_foregroundBlur_1_47"/>
</filter>
<radialGradient id="paint0_radial_1_47" cx="0" cy="0" r="1" gradientUnits="userSpaceOnUse" gradientTransform="translate(80.0257 51.9604) rotate(90) scale(33.6247 73.9744)">
<stop/>
<stop offset="1" stop-opacity="0"/>
</radialGradient>
<linearGradient id="paint1_linear_1_47" x1="52.7456" y1="-8.90045" x2="7.0884e-06" y2="126.731" gradientUnits="userSpaceOnUse">
<stop stop-color="#B8BABB" stop-opacity="0.636375"/>
<stop offset="0.517994" stop-color="#B8BABB"/>
</linearGradient>
<linearGradient id="paint2_linear_1_47" x1="17.7296" y1="6.61295" x2="54.9618" y2="61.1315" gradientUnits="userSpaceOnUse">
<stop stop-color="#8B8C8C" stop-opacity="0"/>
<stop offset="0.0001" stop-color="#8B8C8C" stop-opacity="0.649384"/>
<stop offset="1" stop-color="#8B8C8C"/>
</linearGradient>
<linearGradient id="paint3_linear_1_47" x1="90.8636" y1="53.1532" x2="74.0205" y2="28.775" gradientUnits="userSpaceOnUse">
<stop stop-color="#CDCECE"/>
<stop offset="1" stop-color="#CDCECE" stop-opacity="0"/>
</linearGradient>
</defs>
</svg>
