<svg width="178" height="100" viewBox="0 0 178 100" fill="none" xmlns="http://www.w3.org/2000/svg">
<g filter="url(#filter0_f_1_21)">
<ellipse cx="90.2734" cy="57.6545" rx="83.4474" ry="37.9306" fill="url(#paint0_radial_1_21)" fill-opacity="0.66"/>
</g>
<path d="M48.6362 17.9227C50.7505 3.89812 62.9894 -0.243182 68.2751 0.0108855V75.8501C61.0304 75.8501 58.457 70.0065 58.0759 67.0847C57.0691 70.1336 53.0167 76.155 44.8616 75.8501C34.6677 75.469 31.6465 71.2769 29.3811 68.6092C10.5036 82.3288 0.309312 61.7493 0.309312 59.0816C-3.08821 33.9289 22.5914 37.3588 24.1016 37.7399C19.9423 17.9227 41.0852 11.825 48.6362 17.9227Z" fill="white"/>
<path d="M48.6362 17.9227C50.7505 3.89812 62.9894 -0.243182 68.2751 0.0108855V75.8501C61.0304 75.8501 58.457 70.0065 58.0759 67.0847C57.0691 70.1336 53.0167 76.155 44.8616 75.8501C34.6677 75.469 31.6465 71.2769 29.3811 68.6092C10.5036 82.3288 0.309312 61.7493 0.309312 59.0816C-3.08821 33.9289 22.5914 37.3588 24.1016 37.7399C19.9423 17.9227 41.0852 11.825 48.6362 17.9227Z" fill="url(#paint1_linear_1_21)"/>
<path d="M62.5857 17.9227C64.0892 3.89812 72.7925 -0.243182 76.5512 0.0108855V75.8501C71.3994 75.8501 69.5694 70.0065 69.2984 67.0847C68.5825 70.1336 65.7008 76.155 59.9016 75.8501C52.6526 75.469 50.5041 71.2769 48.8933 68.6092C35.4692 82.3288 28.22 61.7493 28.22 59.0816C25.8039 33.9289 44.065 37.3588 45.1389 37.7399C42.1812 17.9227 57.2161 11.825 62.5857 17.9227Z" fill="#DBDBDB"/>
<path d="M62.3104 17.9227C63.8138 3.89812 72.5171 -0.243182 76.2758 0.0108855V75.8501C71.124 75.8501 69.294 70.0065 69.023 67.0847C68.3071 70.1336 65.4254 76.155 59.6262 75.8501C52.3772 75.469 50.2288 71.2769 48.6179 68.6092C35.1938 82.3288 27.9446 61.7493 27.9446 59.0816C25.5285 33.9289 43.7896 37.3588 44.8636 37.7399C41.9058 17.9227 56.9407 11.825 62.3104 17.9227Z" fill="url(#paint2_linear_1_21)"/>
<path d="M95.9143 17.9227C93.8 3.89812 81.5611 -0.243182 76.2754 0.0108855V75.8501C83.5201 75.8501 86.0935 70.0065 86.4746 67.0847C87.4814 70.1336 91.5338 76.155 99.6889 75.8501C109.883 75.469 112.904 71.2769 115.169 68.6092C134.047 82.3288 144.241 61.7493 144.241 59.0816C147.639 33.9289 121.959 37.3588 120.449 37.7399C124.608 17.9227 103.465 11.825 95.9143 17.9227Z" fill="white"/>
<path d="M95.9143 17.9227C93.8 3.89812 81.5611 -0.243182 76.2754 0.0108855V75.8501C83.5201 75.8501 86.0935 70.0065 86.4746 67.0847C87.4814 70.1336 91.5338 76.155 99.6889 75.8501C109.883 75.469 112.904 71.2769 115.169 68.6092C134.047 82.3288 144.241 61.7493 144.241 59.0816C147.639 33.9289 121.959 37.3588 120.449 37.7399C124.608 17.9227 103.465 11.825 95.9143 17.9227Z" fill="#A0A2A6"/>
<path d="M89.3687 17.9227C87.9592 3.89812 79.7999 -0.243182 76.2761 0.0108855V75.8501C81.1059 75.8501 82.8215 70.0065 83.0756 67.0847C83.7468 70.1336 86.4484 76.155 91.8851 75.8501C98.681 75.469 100.695 71.2769 102.205 68.6092C114.79 82.3288 121.587 61.7493 121.587 59.0816C123.852 33.9289 106.732 37.3588 105.725 37.7399C108.498 17.9227 94.4027 11.825 89.3687 17.9227Z" fill="white"/>
<path d="M89.3687 17.9227C87.9592 3.89812 79.7999 -0.243182 76.2761 0.0108855V75.8501C81.1059 75.8501 82.8215 70.0065 83.0756 67.0847C83.7468 70.1336 86.4484 76.155 91.8851 75.8501C98.681 75.469 100.695 71.2769 102.205 68.6092C114.79 82.3288 121.587 61.7493 121.587 59.0816C123.852 33.9289 106.732 37.3588 105.725 37.7399C108.498 17.9227 94.4027 11.825 89.3687 17.9227Z" fill="url(#paint3_linear_1_21)"/>
<defs>
<filter id="filter0_f_1_21" x="2.82607" y="15.7239" width="174.895" height="83.8613" filterUnits="userSpaceOnUse" color-interpolation-filters="sRGB">
<feFlood flood-opacity="0" result="BackgroundImageFix"/>
<feBlend mode="normal" in="SourceGraphic" in2="BackgroundImageFix" result="shape"/>
<feGaussianBlur stdDeviation="2" result="effect1_foregroundBlur_1_21"/>
</filter>
<radialGradient id="paint0_radial_1_21" cx="0" cy="0" r="1" gradientUnits="userSpaceOnUse" gradientTransform="translate(90.2734 57.6545) rotate(90) scale(37.9306 83.4474)">
<stop/>
<stop offset="1" stop-opacity="0"/>
</radialGradient>
<linearGradient id="paint1_linear_1_21" x1="59.5" y1="-11" x2="1.01866e-05" y2="142" gradientUnits="userSpaceOnUse">
<stop stop-color="#B8BABB" stop-opacity="0.636375"/>
<stop offset="0.517994" stop-color="#B8BABB"/>
</linearGradient>
<linearGradient id="paint2_linear_1_21" x1="28" y1="6.5" x2="70" y2="68" gradientUnits="userSpaceOnUse">
<stop stop-color="#8B8C8C" stop-opacity="0"/>
<stop offset="0.0001" stop-color="#8B8C8C" stop-opacity="0.649384"/>
<stop offset="1" stop-color="#8B8C8C"/>
</linearGradient>
<linearGradient id="paint3_linear_1_21" x1="110.5" y1="59" x2="91.4999" y2="31.5" gradientUnits="userSpaceOnUse">
<stop stop-color="#CDCECE"/>
<stop offset="1" stop-color="#CDCECE" stop-opacity="0"/>
</linearGradient>
</defs>
</svg>
