<svg width="37" height="32" viewBox="0 0 37 32" fill="none" xmlns="http://www.w3.org/2000/svg">
<path d="M0 2.61605C0 1.17125 1.17125 0 2.61605 0H34.0087C35.4535 0 36.6247 1.17125 36.6247 2.61605V2.61605C36.6247 4.06085 35.4535 5.2321 34.0086 5.2321H2.61605C1.17124 5.2321 0 4.06085 0 2.61605V2.61605Z" fill="white" fill-opacity="0.81"/>
<path d="M0 15.6961C0 14.2513 1.17125 13.0801 2.61605 13.0801H34.0087C35.4535 13.0801 36.6247 14.2513 36.6247 15.6961V15.6961C36.6247 17.1409 35.4535 18.3122 34.0086 18.3122H2.61605C1.17124 18.3122 0 17.1409 0 15.6961V15.6961Z" fill="white" fill-opacity="0.81"/>
<rect y="26.1606" width="36.6247" height="5.2321" rx="2.61605" fill="white" fill-opacity="0.81"/>
</svg>
