<svg width="233" height="130" viewBox="0 0 233 130" fill="none" xmlns="http://www.w3.org/2000/svg">
<g filter="url(#filter0_f_1_9)">
<ellipse cx="119" cy="76" rx="110" ry="50" fill="url(#paint0_radial_1_9)" fill-opacity="0.66"/>
</g>
<path d="M64.1121 23.6256C66.8991 5.13849 83.0324 -0.320562 90 0.0143493V99.9853C80.4501 99.9853 77.0578 92.2823 76.5554 88.4309C75.2283 92.4498 69.8864 100.387 59.1364 99.9853C45.6989 99.4829 41.7162 93.9569 38.7301 90.4403C13.8458 108.526 0.407734 81.3977 0.407734 77.8812C-4.07087 44.725 29.7799 49.2463 31.7707 49.7486C26.2879 23.6256 54.1583 15.5877 64.1121 23.6256Z" fill="white"/>
<path d="M64.1121 23.6256C66.8991 5.13849 83.0324 -0.320562 90 0.0143493V99.9853C80.4501 99.9853 77.0578 92.2823 76.5554 88.4309C75.2283 92.4498 69.8864 100.387 59.1364 99.9853C45.6989 99.4829 41.7162 93.9569 38.7301 90.4403C13.8458 108.526 0.407734 81.3977 0.407734 77.8812C-4.07087 44.725 29.7799 49.2463 31.7707 49.7486C26.2879 23.6256 54.1583 15.5877 64.1121 23.6256Z" fill="url(#paint1_linear_1_9)"/>
<path d="M78.5908 23.6256C80.5727 5.13849 92.0453 -0.320562 97 0.0143493V99.9853C90.2089 99.9853 87.7967 92.2823 87.4394 88.4309C86.4957 92.4498 82.697 100.387 75.0526 99.9853C65.497 99.4829 62.6649 93.9569 60.5414 90.4403C42.8459 108.526 33.2899 81.3977 33.2899 77.8812C30.1052 44.725 54.1768 49.2463 55.5925 49.7486C51.6936 23.6256 71.5126 15.5877 78.5908 23.6256Z" fill="#4A39A4"/>
<path d="M122.888 23.6256C120.101 5.13849 103.968 -0.320562 97 0.0143493V99.9853C106.55 99.9853 109.942 92.2823 110.445 88.4309C111.772 92.4498 117.114 100.387 127.864 99.9853C141.301 99.4829 145.284 93.9569 148.27 90.4403C173.154 108.526 186.592 81.3977 186.592 77.8812C191.071 44.725 157.22 49.2463 155.229 49.7486C160.712 23.6256 132.842 15.5877 122.888 23.6256Z" fill="white"/>
<path d="M122.888 23.6256C120.101 5.13849 103.968 -0.320562 97 0.0143493V99.9853C106.55 99.9853 109.942 92.2823 110.445 88.4309C111.772 92.4498 117.114 100.387 127.864 99.9853C141.301 99.4829 145.284 93.9569 148.27 90.4403C173.154 108.526 186.592 81.3977 186.592 77.8812C191.071 44.725 157.22 49.2463 155.229 49.7486C160.712 23.6256 132.842 15.5877 122.888 23.6256Z" fill="#4A39A4" fill-opacity="0.89"/>
<path d="M114.259 23.6256C112.401 5.13849 101.645 -0.320562 97 0.0143493V99.9853C103.367 99.9853 105.628 92.2823 105.963 88.4309C106.848 92.4498 110.409 100.387 117.576 99.9853C126.534 99.4829 129.189 93.9569 131.18 90.4403C147.769 108.526 156.728 81.3977 156.728 77.8812C159.714 44.725 137.147 49.2463 135.82 49.7486C139.475 23.6256 120.894 15.5877 114.259 23.6256Z" fill="#B0A0FF"/>
<path d="M114.259 23.6256C112.401 5.13849 101.645 -0.320562 97 0.0143493V99.9853C103.367 99.9853 105.628 92.2823 105.963 88.4309C106.848 92.4498 110.409 100.387 117.576 99.9853C126.534 99.4829 129.189 93.9569 131.18 90.4403C147.769 108.526 156.728 81.3977 156.728 77.8812C159.714 44.725 137.147 49.2463 135.82 49.7486C139.475 23.6256 120.894 15.5877 114.259 23.6256Z" fill="url(#paint2_linear_1_9)"/>
<defs>
<filter id="filter0_f_1_9" x="5" y="22" width="228" height="108" filterUnits="userSpaceOnUse" color-interpolation-filters="sRGB">
<feFlood flood-opacity="0" result="BackgroundImageFix"/>
<feBlend mode="normal" in="SourceGraphic" in2="BackgroundImageFix" result="shape"/>
<feGaussianBlur stdDeviation="2" result="effect1_foregroundBlur_1_9"/>
</filter>
<radialGradient id="paint0_radial_1_9" cx="0" cy="0" r="1" gradientUnits="userSpaceOnUse" gradientTransform="translate(119 76) rotate(90) scale(50 110)">
<stop/>
<stop offset="1" stop-opacity="0"/>
</radialGradient>
<linearGradient id="paint1_linear_1_9" x1="0.408261" y1="82.9049" x2="185.069" y2="73.9293" gradientUnits="userSpaceOnUse">
<stop stop-color="#624CD5"/>
<stop offset="1" stop-color="#624CD5" stop-opacity="0"/>
</linearGradient>
<linearGradient id="paint2_linear_1_9" x1="171.5" y1="26.5" x2="88.8472" y2="119.369" gradientUnits="userSpaceOnUse">
<stop stop-color="#624CD5"/>
<stop offset="0.264925" stop-color="#624CD5" stop-opacity="0.818682"/>
<stop offset="1" stop-color="#624CD5" stop-opacity="0"/>
</linearGradient>
</defs>
</svg>
